Coordinates
version=1
nRows=5
nColumns=46
inDegrees=yes

Units are S.I. units (second, meters, Newtons, ...)
Angles are in degrees.

endheader
time	pelvis_tilt	pelvis_list	pelvis_rotation	pelvis_tx	pelvis_ty	pelvis_tz	bb_angle	bb_tx	bb_ty	bb_tz	hip_flexion_r	hip_adduction_r	hip_rotation_r	knee_angle_r	knee_angle_r_beta	ankle_angle_r	subtalar_angle_r	mtp_angle_r	crank_angle_r	hip_flexion_l	hip_adduction_l	hip_rotation_l	knee_angle_l	knee_angle_l_beta	ankle_angle_l	subtalar_angle_l	mtp_angle_l	crank_angle_l	lumbar_extension	lumbar_bending	lumbar_rotation	arm_flex_r	arm_add_r	arm_rot_r	elbow_flex_r	pro_sup_r	wrist_flex_r	wrist_dev_r	arm_flex_l	arm_add_l	arm_rot_l	elbow_flex_l	pro_sup_l	wrist_flex_l	wrist_dev_l
      2.50500000	    -13.93336623	      3.72273071	     -1.08083265	      0.19184757	      1.06892546	     -0.21734818	      0.00000000	      0.50000000	      0.00000000	      0.25000000	     58.16844227	     -0.24400766	     10.17980168	     54.84376286	      0.95720424	     14.41356550	    -15.36352956	      0.00000000	      0.00000000	     54.16729492	     -7.02530430	     -2.16173763	     87.38373435	      1.52513388	     -9.13637972	     -7.40241137	      0.00000000	      0.00000000	    -65.95323410	      2.75647019	     -2.57387848	     84.70872920	      0.05975631	     15.50272363	     59.48669392	     44.09075574	      0.00000000	      0.00000000	     84.77908014	    -22.32919508	     20.82625599	     56.06943763	     43.45180860	      0.00000000	      0.00000000
      2.51000000	    -13.91720817	      3.85899615	     -0.96226158	      0.19214142	      1.06921875	     -0.21727783	      0.00000000	      0.50000000	      0.00000000	      0.25000000	     57.48937237	     -0.44075668	     10.29295821	     53.69517500	      0.93715760	     13.62956470	    -15.49550455	      0.00000000	      0.00000000	     54.57294612	     -6.83665075	     -2.03248808	     88.24917990	      1.54023875	     -8.70376340	     -7.33580659	      0.00000000	      0.00000000	    -66.09376114	      2.66295136	     -2.76591680	     84.17347664	      0.08337784	     14.84172315	     60.80798729	     44.24734205	      0.00000000	      0.00000000	     84.44407305	    -22.19711939	     19.74797765	     57.20952926	     43.55781066	      0.00000000	      0.00000000
      2.51500000	    -14.05225895	      4.17630144	     -0.83622285	      0.19211001	      1.06911382	     -0.21733767	      0.00000000	      0.50000000	      0.00000000	      0.25000000	     57.05809137	     -0.71671891	     10.64228939	     52.63068854	      0.91857880	     12.47028751	    -16.19850713	      0.00000000	      0.00000000	     55.15590520	     -6.46975640	     -2.00333571	     89.10743090	      1.55521806	     -8.26315570	     -7.31643326	      0.00000000	      0.00000000	    -65.79847939	      2.45212507	     -3.27472803	     84.26903408	      0.31450690	     14.94876083	     59.77509175	     44.18183273	      0.00000000	      0.00000000	     84.80675800	    -22.54721955	     21.00761610	     56.32577404	     43.55533396	      0.00000000	      0.00000000
      2.52000000	    -14.11205729	      4.38641462	     -0.72877286	      0.19229127	      1.06932300	     -0.21737471	      0.00000000	      0.50000000	      0.00000000	      0.25000000	     56.47966955	     -0.95229021	     10.83305264	     51.52633855	      0.89930426	     11.49295198	    -16.31349534	      0.00000000	      0.00000000	     55.64149485	     -6.23008080	     -1.93355638	     89.95463480	      1.57000455	     -7.75963110	     -7.14238935	      0.00000000	      0.00000000	    -65.74004558	      2.27004410	     -3.60926143	     84.09683267	      0.42572552	     14.68515064	     59.92577132	     44.25083352	      0.00000000	      0.00000000	     84.81562446	    -22.69351513	     21.22825813	     56.52489201	     43.62276322	      0.00000000	      0.00000000
      2.52500000	    -14.22807925	      4.59688264	     -0.63369205	      0.19237124	      1.06942614	     -0.21736518	      0.00000000	      0.50000000	      0.00000000	      0.25000000	     55.97891121	     -1.17855035	     11.00906284	     50.43000569	      0.88016964	     10.44876951	    -16.58802456	      0.00000000	      0.00000000	     56.19103224	     -6.00938933	     -1.87863758	     90.78422809	      1.58448369	     -7.23956448	     -7.00232463	      0.00000000	      0.00000000	    -65.56896966	      2.11290763	     -3.91362172	     84.07173060	      0.64867753	     14.47092197	     59.44841710	     44.24341207	      0.00000000	      0.00000000	     84.97134681	    -22.88942732	     21.82362239	     56.22058417	     43.65336747	      0.00000000	      0.00000000
